<svg xmlns="http://www.w3.org/2000/svg" version="1.1" xmlns:xlink="http://www.w3.org/1999/xlink" xmlns:svgjs="http://svgjs.com/svgjs" width="1440" height="560" preserveAspectRatio="none" viewBox="0 0 1440 560"><g mask="url(&quot;#SvgjsMask1014&quot;)" fill="none"><rect width="1440" height="560" x="0" y="0" fill="rgba(143, 15, 15, 1)"></rect><path d="M 0,277 C 57.6,247.2 172.8,147.8 288,128 C 403.2,108.2 460.8,176 576,178 C 691.2,180 748.8,136.4 864,138 C 979.2,139.6 1036.8,212 1152,186 C 1267.2,160 1382.4,43.6 1440,8L1440 560L0 560z" fill="rgba(177, 161, 18, 1)"></path><path d="M 0,472 C 96,460.4 288,417 480,414 C 672,411 768,459.6 960,457 C 1152,454.4 1344,412.2 1440,401L1440 560L0 560z" fill="rgba(55, 125, 18, 1)"></path></g><defs><mask id="SvgjsMask1014"><rect width="1440" height="560" fill="#ffffff"></rect></mask></defs></svg>